<?xml version="1.0" encoding="UTF-8"?>
<svg id="a" data-name="Capa 1" xmlns="http://www.w3.org/2000/svg" width="211" height="202.60347" viewBox="0 0 211 202.60347">
  <defs>
    <style>
      .c {
        fill: #d33695;
        stroke: #d33695;
        stroke-miterlimit: 10;
        stroke-width: 5px;
      }
    </style>
  </defs>
  <path id="b" data-name="Icon" class="c" d="M79.23677,190.50965l-62.54208-62.54208c-3.90454-3.90454-3.7593-10.40287.32373-14.4859L107.36276,23.13731c2.15623-2.15623,5.09483-3.30533,8.06216-3.15254l59.47989,3.06223c2.44412.12584,4.72549,1.13045,6.42379,2.82875,1.69828,1.69827,2.70289,3.97965,2.82873,6.42377l3.06222,59.47989c.15279,2.96733-.9963,5.90593-3.15253,8.06216l-90.34435,90.34435c-4.08303,4.08303-10.58136,4.22827-14.4859.32373ZM176.25655,30.9478c-.43412-.43412-1.03143-.70475-1.72043-.74025l-59.47986-3.0622c-.92995-.04785-1.91068.34913-2.6235,1.06195L22.08841,118.55166c-1.28745,1.28745-1.43264,3.237-.32373,4.34591l62.54208,62.54208c1.10891,1.10891,3.05846.96372,4.34591-.32374l90.34435-90.34435c.71282-.71282,1.1098-1.69355,1.06192-2.62342l-3.06217-59.47998c-.0355-.68881-.30623-1.28636-.74023-1.72036ZM133.94058,73.26377c-3.07999-3.07999-4.77619-7.17503-4.77622-11.5308.00003-4.35571,1.69625-8.45078,4.77622-11.53075,3.07997-3.07997,7.17504-4.77619,11.53075-4.77622,4.35577.00003,8.4508,1.69622,11.5308,4.77622,3.07998,3.07997,4.7762,7.17504,4.7762,11.53078s-1.69625,8.45078-4.77622,11.53074c-3.07997,3.07997-7.17501,4.77622-11.53075,4.77622s-8.4508-1.69622-11.53078-4.7762ZM151.93214,55.27222c-3.56249-3.56249-9.35909-3.56247-12.92156,0-3.56247,3.56246-3.56249,9.35907,0,12.92156,3.56246,3.56246,9.35907,3.56244,12.92153-.00003s3.56249-9.35907.00003-12.92153Z"/>
</svg>