<?xml version="1.0" encoding="UTF-8"?>
<svg id="a" data-name="Capa 1" xmlns="http://www.w3.org/2000/svg" width="211" height="202.60347" viewBox="0 0 211 202.60347">
  <defs>
    <style>
      .b {
        fill: #fff;
      }

      .c {
        fill: #fe9a00;
      }
    </style>
  </defs>
  <path class="c" d="M56.93699,62.03511c-.07551,23.36921-.15036,46.73838-.22591,70.10759-.01938,6.0814.28674,12.94012,4.80281,17.0131,3.80362,3.43003,9.39779,3.74414,14.5181,3.87848,19.66447.51465,39.32829,1.02926,58.99277,1.54391,5.7265.14971,12.1247.05279,16.23579-3.93665,3.63853-3.53026,4.33234-9.03424,4.74264-14.08768,1.80193-22.19089,2.17551-44.49804,1.1175-66.73703-.19915-4.19193-.50665-8.57237-2.68682-12.15811-4.77275-7.84988-15.76128-8.38525-24.94053-8.00963-20.14702.82342-40.29338,1.64683-60.44044,2.47094-3.12861.12764-6.45368.31949-9.00682,2.13207s-3.10238,5.76791-3.10907,7.78302Z"/>
  <g>
    <path class="b" d="M104.94527,117.90595h-18.20945l-3.4621,10.38564h-11.04262l18.76286-50.40432h9.6237l18.86712,50.40432h-11.04331l-3.4962-10.38564ZM89.54024,109.49398h12.60125l-6.33538-18.86712-6.26587,18.86712Z"/>
    <path class="b" d="M135.23598,128.29159h-10.38564v-50.40432h10.38564v50.40432Z"/>
  </g>
  <path class="c" d="M159.25752,175.50318H53.09058c-10.61221,0-19.2461-8.63389-19.2461-19.2461V48.22278c0-10.61221,8.63389-19.2461,19.2461-19.2461h106.16694c10.61225,0,19.2461,8.63389,19.2461,19.2461v108.0343c0,10.61225-8.63393,19.2461-19.2461,19.2461ZM53.09058,33.65524c-8.03235,0-14.56758,6.53523-14.56758,14.56758v108.0343c0,8.033,6.53523,14.56758,14.56758,14.56758h106.16694c8.03304,0,14.56758-6.53523,14.56758-14.56758V48.22278c0-8.033-6.53454-14.56758-14.56758-14.56758H53.09058v.00004Z"/>
  <path class="c" d="M140.42246,156.41683h-68.49682c-10.61221,0-19.2461-8.63389-19.2461-19.2461v-69.8616c0-10.61221,8.63389-19.2461,19.2461-19.2461h68.49682c10.61225,0,19.2461,8.63389,19.2461,19.2461v69.8616c0,10.61225-8.63385,19.2461-19.2461,19.2461ZM71.92564,52.74159c-8.033,0-14.56758,6.53523-14.56758,14.56758v69.8616c0,8.03235,6.53523,14.56758,14.56758,14.56758h68.49682c8.03304,0,14.56758-6.53523,14.56758-14.56758v-69.86164c0-8.03235-6.53454-14.56758-14.56758-14.56758h-68.49682v.00004Z"/>
  <path class="c" d="M68.01441,31.8206c-1.29193,0-2.33926-1.04733-2.33926-2.33926V7.33926c0-1.29195,1.04733-2.33926,2.33926-2.33926s2.33926,1.04731,2.33926,2.33926v22.14208c0,1.29193-1.04733,2.33926-2.33926,2.33926Z"/>
  <path class="c" d="M93.33721,31.8206c-1.29193,0-2.33926-1.04733-2.33926-2.33926V7.33926c0-1.29195,1.04733-2.33926,2.33926-2.33926s2.33926,1.04731,2.33926,2.33926v22.14208c0,1.29193-1.04733,2.33926-2.33926,2.33926Z"/>
  <path class="c" d="M121.03938,31.8206c-1.29193,0-2.33926-1.04733-2.33926-2.33926V7.33926c0-1.29195,1.04733-2.33926,2.33926-2.33926s2.33926,1.04731,2.33926,2.33926v22.14208c0,1.29193-1.04733,2.33926-2.33926,2.33926Z"/>
  <path class="c" d="M146.36215,31.8206c-1.29193,0-2.33926-1.04733-2.33926-2.33926V7.33926c0-1.29195,1.04733-2.33926,2.33926-2.33926s2.33926,1.04731,2.33926,2.33926v22.14208c0,1.29193-1.04733,2.33926-2.33926,2.33926Z"/>
  <path class="c" d="M199.38447,65.81401h-22.1421c-1.29193,0-2.33926-1.04733-2.33926-2.33926s1.04733-2.33926,2.33926-2.33926h22.1421c1.29193,0,2.33926,1.04733,2.33926,2.33926s-1.04733,2.33926-2.33926,2.33926Z"/>
  <path class="c" d="M199.38447,91.13682h-22.1421c-1.29193,0-2.33926-1.04733-2.33926-2.33926s1.04733-2.33926,2.33926-2.33926h22.1421c1.29193,0,2.33926,1.04733,2.33926,2.33926s-1.04733,2.33926-2.33926,2.33926Z"/>
  <path class="c" d="M199.38447,118.83967h-22.1421c-1.29193,0-2.33926-1.04733-2.33926-2.33926s1.04733-2.33926,2.33926-2.33926h22.1421c1.29193,0,2.33926,1.04733,2.33926,2.33926s-1.04733,2.33926-2.33926,2.33926Z"/>
  <path class="c" d="M199.38447,144.16248h-22.1421c-1.29193,0-2.33926-1.04733-2.33926-2.33926s1.04733-2.33926,2.33926-2.33926h22.1421c1.29193,0,2.33926,1.04733,2.33926,2.33926s-1.04733,2.33926-2.33926,2.33926Z"/>
  <path class="c" d="M33.75764,65.81401H11.61553c-1.29193,0-2.33926-1.04733-2.33926-2.33926s1.04733-2.33926,2.33926-2.33926h22.1421c1.29193,0,2.33926,1.04733,2.33926,2.33926s-1.04733,2.33926-2.33926,2.33926Z"/>
  <path class="c" d="M33.75764,91.13682H11.61553c-1.29193,0-2.33926-1.04733-2.33926-2.33926s1.04733-2.33926,2.33926-2.33926h22.1421c1.29193,0,2.33926,1.04733,2.33926,2.33926s-1.04733,2.33926-2.33926,2.33926Z"/>
  <path class="c" d="M33.75764,118.83967H11.61553c-1.29193,0-2.33926-1.04733-2.33926-2.33926s1.04733-2.33926,2.33926-2.33926h22.1421c1.29193,0,2.33926,1.04733,2.33926,2.33926s-1.04733,2.33926-2.33926,2.33926Z"/>
  <path class="c" d="M33.75764,144.16248H11.61553c-1.29193,0-2.33926-1.04733-2.33926-2.33926s1.04733-2.33926,2.33926-2.33926h22.1421c1.29193,0,2.33926,1.04733,2.33926,2.33926s-1.04733,2.33926-2.33926,2.33926Z"/>
  <path class="c" d="M67.73367,199.80341c-1.29193,0-2.33926-1.04733-2.33926-2.33926v-22.1421c0-1.29193,1.04733-2.33926,2.33926-2.33926s2.33926,1.04733,2.33926,2.33926v22.1421c0,1.29193-1.04729,2.33926-2.33926,2.33926Z"/>
  <path class="c" d="M93.05647,199.80341c-1.29193,0-2.33926-1.04733-2.33926-2.33926v-22.1421c0-1.29193,1.04733-2.33926,2.33926-2.33926s2.33926,1.04733,2.33926,2.33926v22.1421c0,1.29193-1.04664,2.33926-2.33926,2.33926Z"/>
  <path class="c" d="M120.75933,199.80341c-1.29193,0-2.33926-1.04733-2.33926-2.33926v-22.1421c0-1.29193,1.04733-2.33926,2.33926-2.33926s2.33926,1.04733,2.33926,2.33926v22.1421c0,1.29193-1.04798,2.33926-2.33926,2.33926Z"/>
  <path class="c" d="M146.08149,199.80341c-1.29193,0-2.33926-1.04733-2.33926-2.33926v-22.1421c0-1.29193,1.04733-2.33926,2.33926-2.33926s2.33926,1.04733,2.33926,2.33926v22.1421c0,1.29193-1.04733,2.33926-2.33926,2.33926Z"/>
</svg>