<?xml version="1.0" encoding="UTF-8"?>
<svg id="a" data-name="Icon" xmlns="http://www.w3.org/2000/svg" width="4500" height="4500" viewBox="0 0 4500 4500">
  <defs>
    <style>
      .c {
        fill: none;
      }

      .d {
        fill: #9ae600;
      }
    </style>
  </defs>
  <rect id="b" data-name="Background" class="c" y=".766" width="4500" height="4500"/>
  <g>
    <path class="d" d="M2275.30896,4114.47129c-27.74812,0-55.50075-4.57619-81.91216-13.72378-151.38941-52.45714-541.88846-209.58512-897.39868-534.94805-202.59262-185.41159-362.81192-397.44824-476.21672-630.22283-137.18211-281.57902-206.73763-595.80443-206.73763-933.94639v-738.05489c0-113.98825,76.83982-213.6997,186.85726-242.48411,679.18817-177.69638,1159.66324-473.23423,1334.71223-592.05551,85.47372-58.00862,195.92672-58.00862,281.39166-.00438,175.05776,118.8169,655.53722,414.35475,1334.71675,592.05551h0c110.01744,28.7844,186.85726,128.50024,186.85726,242.48411v738.05449c0,338.14197-69.55991,652.36738-206.73763,933.94639-113.40493,232.77459-273.62411,444.81124-476.21686,630.22283-355.51447,325.36292-746.01365,482.49516-897.40307,534.94805-26.41167,9.15663-54.16404,13.72856-81.91242,13.72856ZM2275.31348,537.91676c-19.21866,0-38.44157,5.69074-55.20896,17.07214-103.24245,70.07798-274.96082,177.26095-506.69049,289.91687-279.37145,135.81935-573.7598,244.64371-874.98427,323.45153-43.07874,11.26826-73.16066,50.42828-73.16066,95.21805v738.05462c0,314.84806,64.38286,606.64138,191.3593,867.27756,104.97978,215.485,253.73935,412.17336,442.1422,584.59702,334.56739,306.1921,702.01183,454.05052,844.46253,503.4077,20.6816,7.16245,43.46182,7.1667,64.15219-.00425,142.45044-49.35293,509.89515-197.21108,844.46253-503.4077,188.40285-172.42367,337.16242-369.11228,442.14207-584.59702,126.97644-260.63618,191.3593-552.42951,191.3593-867.27756v-738.05462c0-44.78976-30.08192-83.94553-73.16053-95.21805-301.21118-78.80782-595.59528-187.63218-874.9755-323.45153-231.73844-112.65592-403.45229-219.84328-506.69926-289.91687-16.75889-11.38154-35.98632-17.06789-55.20046-17.06789Z"/>
    <path class="d" d="M2679.99804,1880.04823h-57.69504v-184.61062c0-191.34615-155.6475-346.99378-346.99378-346.99378s-346.99378,155.6475-346.99378,346.99378v184.61062h-57.6953c-88.02517,0-159.33981,71.35371-159.33981,159.37887v809.37764c0,87.9861,71.31889,159.33981,159.33981,159.33981h809.3779c88.02517,0,159.33981-71.35371,159.33981-159.33981v-809.37764c-.00027-88.02517-71.31464-159.37887-159.33981-159.37887ZM2358.50122,2503.82267v111.73285c0,45.93487-37.21806,83.1532-83.19227,83.1532-45.93487,0-83.1532-37.21806-83.1532-83.1532v-111.69378c-46.42704-28.16189-77.44493-79.19541-77.44493-137.42168,0-88.70894,71.924-160.59813,160.59813-160.59813,88.70894,0,160.59813,71.88919,160.59813,160.59813,0,58.22653-30.97882,109.22099-77.40586,137.38261ZM2462.47103,1880.04823h-374.31962v-184.61062c0-103.20777,83.94992-187.16194,187.16207-187.16194s187.16207,83.94992,187.16207,187.16194v184.61062h-.00452Z"/>
  </g>
</svg>