<?xml version="1.0" encoding="UTF-8"?>
<svg id="a" data-name="Capa 1" xmlns="http://www.w3.org/2000/svg" width="211" height="202.60347" viewBox="0 0 211 202.60347">
  <defs>
    <style>
      .b {
        fill: #a3b3ff;
      }
    </style>
  </defs>
  <path class="b" d="M37.72457,106.76856c1.66061.55585,3.21695.22931,4.6552-.97275,4.51625-3.78662,9.53274-7.87904,15.04253-12.26327,10.65829-8.48358,18.46786-15.18149,28.57032-23.43578.18761-.15283.45168-.13892.6254.02783.89622.84764,1.70917,1.73006,2.43874,2.6472,3.50177,4.4259,6.07255,7.46224,7.71228,9.10891,3.1614,3.18914,5.70435,1.59105,8.73371-1.11176,12.97203-11.58232,24.98523-22.41435,36.03949-32.48206,1.96631-1.78565,3.87707-3.61298,5.73911-5.47507.06258-.132.19454-.18761.38218-.15287.13892.02781.22228.11815.2432.27793-.04169,5.53756-.06956,11.08215-.09033,16.63367,0,1.91757.19452,4.14098,2.42482,4.54397,3.67552.66006,5.54451-.91016,5.61402-4.69689.08338-4.28693.09037-12.43002.02087-24.43621-.02087-4.71081-2.66112-5.28058-6.8855-5.20413-8.07361.15287-14.98001.1737-20.72602.06254-4.07159-.08336-6.9481.55585-6.50335,5.13462.09031.88238.39603,1.61888.91714,2.19558.36822.39603,1.11163.59751,2.23024.59751,10.0747-.00695,15.44553.00697,16.11253.02779.20846.00693.29184.27793.11815.39607-4.0299,2.82783-7.66367,6.73956-11.08905,9.67859-7.97634,6.83688-16.24459,14.63262-28.68155,26.01351-.35436.32655-.91714.29177-1.22981-.07647-2.1191-2.52214-5.1207-6.10731-9.00465-10.76941-1.8621-2.2304-4.11323-2.7723-6.76043-1.63285-.16675.07645-.31962.16679-.4656.27098-1.24369.93106-2.70966,1.88298-3.67544,2.73062-6.39921,5.59315-14.26436,11.63797-19.62132,16.1056-9.33121,7.78873-17.15473,14.13921-23.47048,19.05844-.9797.77122-1.58417,1.40351-1.80651,1.90375-.95884,2.16083.08336,4.51623,2.39012,5.2944Z"/>
  <path class="b" d="M34.95234,170.3154c22.0878.07642,67.48639.07642,136.18169.01386,2.04968-.00691,3.43925-.14588,4.16884-.42383.16673-.0625.32653-.15978.46547-.28486,1.737-1.60498,1.98715-3.34199.74346-5.21102-.91018-1.37573-2.0219-2.09137-3.32809-2.14001-3.1753-.132-4.79416-.19452-4.85672-.20153-.34044-.01386-.59753-.32653-.54191-.66699.21533-1.34095.31961-2.65415.32649-3.94648.07649-13.47222.08342-38.18645.00697-74.15645,0-1.22981-.18754-2.13306-.18754-3.54354.00691-.21537-.04868-.43076-.1599-.61833-.82675-1.47998-1.93151-2.38317-3.30031-2.70285-.18752-.04163-.37513-.06252-.56973-.05555-.67394.02087-8.93518.03474-24.76976.03474-1.95934,0-3.3837.27793-4.28001.83376-1.29924.80598-1.95236,2.06355-1.95236,3.77278-.03474,30.64785-.03474,56.49453-.01392,77.53326,0,1.32009.20147,2.10523.12506,3.0502-.02776.28484-.26397.50023-.54888.50023h-11.4712c-.18757,0-.34046-.15283-.34046-.34044.04165-21.19154.04165-41.39647,0-60.60778-.00691-3.20305-2.04964-4.45371-5.14153-4.43981-7.84436.03474-15.84852.02778-24.01243-.02781-1.74401-.00697-3.03629.26403-3.87701.8199-1.16031.77122-1.74401,1.92462-1.73705,3.46706.04868,19.97564.06254,39.9443.02776,59.90602l.01395,1.22981-11.24195.03472c-.31964.00693-.58363-.25706-.58363-.58361.09033-19.6699.06947-32.62107-.04864-38.85348-.0625-2.93206-1.52162-4.39117-4.38421-4.38423-13.93778.03478-22.67148.02781-26.2011-.0139-1.82732-.02083-3.18912.52111-4.07849,1.6328-.66008.82683-.98661,2.25812-.98661,4.30086-.00697,16.32095,0,28.77882.02778,37.37349,0,.21541-.1598.3891-.37517.40997-2.92515.28486-6.1977-.45164-8.24043,2.807-.18061.28484-.25011.61839-.20147.95187.43078,3.00851,2.20947,4.52318,5.34306,4.53015ZM66.30885,126.20223v35.67129c0,.13895-.11116.25015-.25013.25015h-19.46841c-.13897,0-.25013-.1112-.25013-.25015v-35.67129c0-.13893.11116-.25011.25013-.25011h19.46841c.13897,0,.25013.11118.25013.25011ZM112.89548,161.74149c-.00697.19456-.1598.34739-.35432.34739l-8.96299.06951-9.34509-.01392c-.11123-.00693-.1946-.09031-.1946-.20147v-57.00176c0-.20153.15982-.36133.36131-.36133l18.53743-.03469-.04173,57.19627ZM160.22555,84.89615l.02781,73.89242-.06951,2.87651c-.00695.20844-.16673.37523-.37513.38214l-3.15449.08336-15.68169-.00691c-.18067,0-.32655-.14592-.32655-.32659v-76.94959c0-.15289.11813-.27098.271-.27098h18.98892c.17375,0,.31964.14594.31964.31964Z"/>
</svg>